<?xml version="1.0" encoding="iso-8859-1"?>
<!-- Generator: Adobe Illustrator 19.0.0, SVG Export Plug-In . SVG Version: 6.00 Build 0)  -->
<svg version="1.1" id="Capa_1" xmlns="http://www.w3.org/2000/svg" xmlns:xlink="http://www.w3.org/1999/xlink" x="0px" y="0px"
	 viewBox="0 0 511.999 511.999" style="enable-background:new 0 0 511.999 511.999;" xml:space="preserve">
<path style="fill:#E6595A;" d="M470.634,384.172c-29.923-10.891-45.405-44.094-34.514-74.017l38.39-105.474
	c28.804-79.137-12-166.641-91.137-195.443c-79.137-28.805-166.641,11.999-195.444,91.136l-38.39,105.474
	c-10.891,29.923-44.094,45.405-74.017,34.514c-22.583-8.22-47.552,3.424-55.772,26.007c-8.22,22.583,3.424,47.552,26.007,55.772
	c48.635,17.701,100.723,7.602,138.788-22.127l-11.41,31.346c-9.549,26.236-23.414,49.214-36.184,59.968
	c-18.534,15.608-20.907,43.284-5.299,61.818c5.121,6.081,11.54,10.422,18.512,12.959c14.273,5.194,30.852,2.825,43.305-7.662
	c33.605-28.299,53.344-72.966,62.118-97.074c-8.774,24.107-22.366,71.011-14.813,114.291c2.799,16.037,13.976,28.51,28.249,33.706
	c6.972,2.537,14.679,3.338,22.512,1.971c23.869-4.165,39.843-26.892,35.677-50.762c-2.87-16.446,1.279-42.961,10.829-69.197
	l11.016-30.267c10.387,46.687,43.632,87.3,91.812,104.837c22.583,8.22,47.552-3.424,55.772-26.007
	C504.86,417.362,493.217,392.392,470.634,384.172z"/>
<path style="opacity:0.05;enable-background:new    ;" d="M458.439,68.454c-2.455-0.648-5.032-0.998-7.691-0.998
	c-16.587,0-30.035,13.448-30.035,30.035s13.448,30.035,30.035,30.035c11.913,0,22.206-6.936,27.061-16.99
	C473.521,95.614,466.986,81.411,458.439,68.454z"/>
<circle style="opacity:0.05;enable-background:new    ;" cx="401.65" cy="53.871" r="13.589"/>
<g>
	<path style="fill:#394049;" d="M251.411,130.982c-0.929,0-1.871-0.159-2.793-0.495c-4.243-1.544-6.429-6.234-4.886-10.476
		l1.367-3.756c1.543-4.242,6.232-6.432,10.476-4.886c4.242,1.544,6.429,6.234,4.886,10.476l-1.367,3.756
		C257.885,128.92,254.751,130.982,251.411,130.982z"/>
	<path style="fill:#394049;" d="M411.458,189.234c-0.929,0-1.871-0.159-2.794-0.495c-4.243-1.543-6.429-6.234-4.886-10.476
		l1.367-3.756c1.544-4.242,6.232-6.431,10.476-4.886c4.243,1.543,6.429,6.234,4.886,10.476l-1.367,3.756
		C417.932,187.172,414.798,189.234,411.458,189.234z"/>
	<path style="fill:#394049;" d="M342.72,185.152c-2.548,0-5.136-0.436-7.665-1.357c-4.966-1.808-9.05-5.223-11.688-9.726
		c-4.751,1.687-10.092,1.797-15.187-0.057c-5.641-2.053-10.145-6.179-12.681-11.621c-2.537-5.441-2.804-11.544-0.751-17.185
		c1.544-4.242,6.228-6.429,10.477-4.886c4.242,1.544,6.429,6.235,4.885,10.477c-1.156,3.174,0.487,6.696,3.662,7.851
		c3.167,1.155,6.696-0.485,7.851-3.661c1.543-4.242,6.231-6.429,10.477-4.886c3.319,1.208,5.379,4.341,5.381,7.678
		c0,0.93-0.159,1.875-0.495,2.799c-1.156,3.175,0.486,6.697,3.661,7.852c3.174,1.159,6.698-0.487,7.852-3.662
		c1.544-4.242,6.231-6.43,10.477-4.886c4.242,1.544,6.429,6.235,4.885,10.477C360.543,179.48,351.903,185.152,342.72,185.152z"/>
</g>
<g>
	<path style="fill:#FFFFFF;" d="M253.05,162.111c-0.929,0-1.872-0.159-2.794-0.495l-22.902-8.336
		c-4.243-1.544-6.429-6.235-4.885-10.477c1.543-4.242,6.235-6.43,10.477-4.886l22.902,8.336c4.242,1.544,6.429,6.235,4.885,10.477
		C259.523,160.05,256.388,162.111,253.05,162.111z"/>
	<path style="fill:#FFFFFF;" d="M413.095,220.363c-0.929,0-1.872-0.159-2.794-0.495l-22.902-8.336
		c-4.243-1.544-6.429-6.235-4.885-10.477c1.543-4.242,6.235-6.43,10.477-4.885l22.902,8.336c4.243,1.544,6.429,6.235,4.885,10.477
		C419.569,218.302,416.434,220.363,413.095,220.363z"/>
</g>
<g>
	<circle style="fill:#F0B0B7;" cx="26.852" cy="307.314" r="14.129"/>
	<circle style="fill:#F0B0B7;" cx="77.78" cy="328.904" r="14.129"/>
	<circle style="fill:#F0B0B7;" cx="130.573" cy="325.765" r="14.129"/>
	<circle style="fill:#F0B0B7;" cx="464.883" cy="466.748" r="14.129"/>
	<circle style="fill:#F0B0B7;" cx="411.993" cy="450.542" r="14.129"/>
	<circle style="fill:#F0B0B7;" cx="373.576" cy="414.206" r="14.129"/>
</g>
<g>
</g>
<g>
</g>
<g>
</g>
<g>
</g>
<g>
</g>
<g>
</g>
<g>
</g>
<g>
</g>
<g>
</g>
<g>
</g>
<g>
</g>
<g>
</g>
<g>
</g>
<g>
</g>
<g>
</g>
</svg>
